<svg xmlns="http://www.w3.org/2000/svg" width="17" height="16" viewBox="0 0 17 16">
    <g fill="#FC4242">
        <path d="M9.2 2c.24.32.32.8.16 1.68l-.24.96-.16.48-.48 2h5.92c.32 0 .4.08.56.16l-.16.24-.48.8.4.8.16.32c-.08.16-.16.24-.32.4-.32.48-.48 1.12-.32 1.68l-.08.08c-.56.56-.72 1.36-.64 1.84v.16H7.04V12.16v-4.4c.16-.4.4-.88.64-1.28l1.2-2.64C9.2 3.2 9.2 2.56 9.2 2zm-.24-2c-.24 0-.48.08-.8.16-.72.24-.48.8-.48 1.28-.08.64 0 1.28-.16 1.84-.56 1.28-1.2 2.56-1.76 3.84-.16.24-.16.48-.24.72v5.68c0 1.44.08 1.6 1.6 1.68h6.4c1.12 0 1.76-.8 1.6-2 0-.16 0-.4.16-.48.48-.48.72-.96.56-1.6 0-.16 0-.32.08-.4.16-.32.4-.56.64-.8v-.8c-.16-.24-.24-.48-.4-.8.16-.24.24-.48.4-.64V6.8c-.4-.96-1.12-1.36-2.16-1.36h-4c.16-.56.24-1.04.4-1.52.32-1.36.16-2.56-.88-3.52-.24-.24-.56-.4-.96-.4z"/>
        <path d="M2.96 8.48h.32v5.12H1.6v-.08-4.88c0-.08 0-.08.16-.08.4-.08.8-.08 1.2-.08zm0-1.6h-1.2C.72 6.96 0 7.68 0 8.64v4.96c0 .96.64 1.6 1.6 1.68H3.92c.72 0 .88-.24.88-.96V7.6v-.64c-.56-.08-1.2-.08-1.84-.08z" opacity=".5"/>
    </g>
</svg>
