<svg xmlns="http://www.w3.org/2000/svg" width="15" height="10" viewBox="0 0 15 10">
    <g fill="#737475" opacity=".6">
        <path d="M4.476 5C5.89 5 7.068 3.88 7.068 2.537S5.968 0 4.476 0 1.885 1.12 1.885 2.463C1.885 3.88 3.063 5 4.476 5zM6.283 5.672h-.157c-1.021.522-2.2.522-3.22 0H2.67C1.178 5.672 0 6.866 0 8.284v.671C0 9.552.471 10 1.1 10h6.753c.629 0 1.1-.448 1.1-1.045v-.671c.078-1.418-1.178-2.538-2.67-2.612zM11.23 5c1.257 0 2.278-.97 2.278-2.164 0-1.194-1.021-2.09-2.278-2.09-1.256 0-2.277.97-2.277 2.164C9.03 4.03 10.053 5 11.23 5zM12.408 5.672h-.078c-.707.298-1.414.298-2.12 0h-.08c-.47 0-.942.149-1.334.373.628.597.942 1.418.942 2.239v.97H13.9c.629 0 1.1-.448 1.1-1.045 0-1.418-1.178-2.537-2.592-2.537z"/>
    </g>
</svg>
